<svg width="12.094" height="11.367" viewBox="0 0 12.094 11.367" xmlns="http://www.w3.org/2000/svg"><g id="svgGroup" stroke-linecap="round" fill-rule="evenodd" font-size="9pt" stroke="#dc143c" stroke-width="0.25mm" fill="#dc143c" style="stroke:#dc143c;stroke-width:0.25mm;fill:#dc143c"><path d="M 6.508 9.602 L 5.766 10.266 Q 5.734 10.289 5.691 10.375 A 1.709 1.709 0 0 1 5.676 10.405 Q 5.652 10.451 5.637 10.471 A 0.089 0.089 0 0 1 5.629 10.48 Q 5.61 10.499 5.567 10.5 A 0.215 0.215 0 0 1 5.563 10.5 A 3.763 3.763 0 0 0 5.531 10.5 Q 5.452 10.501 5.43 10.505 A 0.02 0.02 0 0 0 5.422 10.508 L 4.969 10.93 A 0.105 0.105 0 0 1 4.894 10.961 A 0.139 0.139 0 0 1 4.891 10.961 Q 4.867 10.961 4.813 10.945 Q 4.758 10.93 4.727 10.961 A 0.037 0.037 0 0 0 4.713 10.982 Q 4.706 11.007 4.722 11.054 A 0.37 0.37 0 0 0 4.727 11.066 A 0.347 0.347 0 0 1 4.733 11.086 Q 4.752 11.146 4.731 11.168 A 0.035 0.035 0 0 1 4.727 11.172 L 4.57 11.328 A 0.166 0.166 0 0 1 4.461 11.367 A 0.196 0.196 0 0 1 4.352 11.334 A 0.242 0.242 0 0 1 4.344 11.328 A 0.007 0.007 0 0 1 4.339 11.326 Q 4.335 11.322 4.33 11.31 A 0.138 0.138 0 0 1 4.328 11.305 A 0.788 0.788 0 0 1 4.171 11.288 A 0.98 0.98 0 0 1 4.082 11.266 Q 3.982 11.235 3.865 11.162 A 1.553 1.553 0 0 1 3.797 11.117 Q 3.719 10.992 3.641 10.875 Q 3.492 10.766 3.363 10.707 A 0.91 0.91 0 0 0 3.287 10.676 Q 3.21 10.649 3.152 10.648 A 0.256 0.256 0 0 0 3.148 10.648 A 0.964 0.964 0 0 0 3.024 10.57 A 0.754 0.754 0 0 0 2.914 10.523 Q 2.555 10.398 1.953 10.398 A 15.085 15.085 0 0 0 1.702 10.4 Q 1.352 10.406 1.164 10.43 A 1.398 1.398 0 0 0 0.935 10.479 Q 0.781 10.526 0.609 10.609 A 0.111 0.111 0 0 0 0.581 10.624 Q 0.556 10.642 0.526 10.677 A 0.695 0.695 0 0 0 0.496 10.715 A 0.661 0.661 0 0 1 0.461 10.759 Q 0.424 10.801 0.391 10.82 A 0.144 0.144 0 0 1 0.375 10.828 Q 0.331 10.843 0.207 10.778 A 1.248 1.248 0 0 1 0.191 10.77 A 0.83 0.83 0 0 0 0.143 10.745 Q 0.044 10.7 0 10.719 L 0.055 10.133 Q 0.12 10.073 0.218 9.972 A 8.254 8.254 0 0 0 0.281 9.906 Q 0.498 9.668 0.612 9.612 A 0.215 0.215 0 0 1 0.637 9.602 A 0.924 0.924 0 0 1 0.77 9.567 A 1.234 1.234 0 0 1 0.895 9.551 Q 1.039 9.539 1.145 9.523 Q 1.221 9.512 1.318 9.472 A 1.381 1.381 0 0 0 1.395 9.438 A 1.702 1.702 0 0 1 1.453 9.41 Q 1.551 9.367 1.594 9.367 Q 1.723 9.374 1.786 9.375 A 1.157 1.157 0 0 0 1.797 9.375 A 0.624 0.624 0 0 0 1.852 9.373 Q 1.88 9.37 1.903 9.365 A 0.277 0.277 0 0 0 1.938 9.355 A 0.191 0.191 0 0 0 1.978 9.335 Q 2.013 9.311 2.052 9.268 A 0.627 0.627 0 0 0 2.055 9.266 A 0.24 0.24 0 0 0 2.087 9.218 Q 2.129 9.138 2.16 8.98 Q 2.197 8.796 2.202 8.556 A 3.683 3.683 0 0 0 2.203 8.477 L 2.203 8.148 L 2.203 7.891 A 22.233 22.233 0 0 0 2.2 7.488 Q 2.192 7.067 2.167 6.781 A 4.501 4.501 0 0 0 2.148 6.602 A 2.695 2.695 0 0 1 2.125 6.398 A 0.835 0.835 0 0 0 2.089 6.265 Q 2.061 6.19 2.02 6.131 A 0.518 0.518 0 0 0 2.016 6.125 A 0.142 0.142 0 0 0 1.995 6.101 Q 1.958 6.067 1.873 6.016 A 2.325 2.325 0 0 0 1.82 5.984 Q 1.656 5.891 1.648 5.883 A 0.384 0.384 0 0 1 1.622 5.86 Q 1.592 5.831 1.555 5.785 A 0.26 0.26 0 0 0 1.443 5.707 A 0.336 0.336 0 0 0 1.406 5.695 A 2.544 2.544 0 0 1 1.219 5.75 Q 1.031 5.734 0.914 5.723 Q 0.829 5.714 0.765 5.704 A 1.335 1.335 0 0 1 0.719 5.695 A 1.379 1.379 0 0 1 0.428 5.6 Q 0.247 5.52 0.055 5.383 Q 0.195 5.148 0.336 5.063 A 0.608 0.608 0 0 1 0.492 4.994 Q 0.63 4.953 0.82 4.953 L 1.273 4.688 Q 1.525 4.659 1.645 4.643 A 6.278 6.278 0 0 0 1.664 4.641 Q 1.859 4.602 1.992 4.453 Q 2.072 4.352 2.145 4.022 A 4.408 4.408 0 0 0 2.156 3.969 Q 2.178 3.866 2.248 3.422 A 75.949 75.949 0 0 0 2.258 3.359 A 0.237 0.237 0 0 1 2.266 3.323 Q 2.283 3.263 2.336 3.16 A 0.828 0.828 0 0 0 2.375 3.074 Q 2.406 2.99 2.406 2.922 Q 2.406 2.373 2.224 2.097 A 0.685 0.685 0 0 0 2.188 2.047 A 0.579 0.579 0 0 0 1.84 1.838 A 0.895 0.895 0 0 0 1.656 1.82 A 1.332 1.332 0 0 0 1.504 1.829 A 1.647 1.647 0 0 0 1.406 1.844 A 37.437 37.437 0 0 1 0.703 2.086 Q 0.645 2.086 0.523 2.002 A 1.44 1.44 0 0 1 0.504 1.988 Q 0.395 1.911 0.348 1.895 A 0.066 0.066 0 0 0 0.328 1.891 L 0.328 1.648 A 1.216 1.216 0 0 1 0.368 1.514 Q 0.395 1.44 0.434 1.359 A 1.062 1.062 0 0 1 0.513 1.219 A 0.8 0.8 0 0 1 0.609 1.102 A 0.388 0.388 0 0 1 0.644 1.079 Q 0.703 1.044 0.819 0.992 A 5.094 5.094 0 0 1 0.891 0.961 Q 1 0.914 1.059 0.871 Q 1.115 0.83 1.212 0.69 A 2.605 2.605 0 0 0 1.219 0.68 A 0.491 0.491 0 0 1 1.255 0.634 Q 1.296 0.589 1.335 0.576 A 0.099 0.099 0 0 1 1.367 0.57 A 0.073 0.073 0 0 0 1.383 0.567 Q 1.454 0.546 1.808 0.404 A 47.716 47.716 0 0 0 1.937 0.352 Q 2.432 0.151 2.558 0.134 A 0.154 0.154 0 0 1 2.578 0.133 A 1.074 1.074 0 0 1 2.647 0.135 Q 2.713 0.139 2.757 0.152 A 0.26 0.26 0 0 1 2.77 0.156 Q 2.815 0.172 2.874 0.19 A 4.269 4.269 0 0 0 2.93 0.207 A 8.363 8.363 0 0 0 2.974 0.22 Q 3.012 0.231 3.04 0.238 A 1.838 1.838 0 0 0 3.07 0.246 A 0.447 0.447 0 0 1 3.146 0.273 A 0.51 0.51 0 0 1 3.164 0.281 A 2.065 2.065 0 0 1 3.512 0.502 A 1.577 1.577 0 0 1 3.809 0.809 Q 4.039 1.125 4.273 1.445 A 9.376 9.376 0 0 1 4.305 1.546 Q 4.344 1.672 4.36 1.739 A 0.903 0.903 0 0 1 4.363 1.754 A 0.838 0.838 0 0 1 4.379 1.861 A 1.09 1.09 0 0 1 4.383 1.953 A 0.05 0.05 0 0 1 4.376 1.976 Q 4.358 2.011 4.289 2.063 A 0.858 0.858 0 0 0 4.257 2.087 Q 4.212 2.125 4.2 2.149 A 0.034 0.034 0 0 0 4.195 2.164 Q 4.195 2.272 4.209 2.444 A 8.186 8.186 0 0 0 4.219 2.555 A 10.523 10.523 0 0 1 4.229 2.67 Q 4.242 2.83 4.242 2.906 L 4.242 2.992 Q 4.231 3.032 4.228 3.056 A 0.119 0.119 0 0 0 4.227 3.07 A 0.647 0.647 0 0 1 4.183 3.225 A 0.549 0.549 0 0 1 4.125 3.328 Q 4.102 3.367 4.039 3.414 Q 4.039 3.441 4.141 3.58 A 4.759 4.759 0 0 0 4.18 3.633 A 0.432 0.432 0 0 1 4.22 3.696 Q 4.239 3.734 4.246 3.77 A 0.221 0.221 0 0 1 4.25 3.813 A 6.655 6.655 0 0 0 4.251 3.91 Q 4.253 4.053 4.261 4.302 A 69.139 69.139 0 0 0 4.266 4.465 A 130.048 130.048 0 0 1 4.271 4.631 Q 4.279 4.902 4.281 4.998 A 2.21 2.21 0 0 1 4.281 5.031 L 4.281 5.125 Q 4.281 5.477 4.25 5.75 A 0.018 0.018 0 0 1 4.243 5.763 Q 4.228 5.778 4.176 5.789 Q 4.114 5.802 4.098 5.82 A 0.023 0.023 0 0 0 4.094 5.828 L 4.063 6.07 A 0.028 0.028 0 0 0 4.062 6.076 Q 4.062 6.112 4.156 6.141 A 0.543 0.543 0 0 1 4.187 6.151 Q 4.251 6.175 4.251 6.199 A 0.018 0.018 0 0 1 4.25 6.203 Q 4.25 6.406 4.23 6.637 A 2.95 2.95 0 0 1 4.219 6.744 Q 4.206 6.856 4.186 6.93 A 0.589 0.589 0 0 1 4.172 6.977 A 0.055 0.055 0 0 1 4.165 6.992 Q 4.144 7.023 4.086 6.996 A 0.25 0.25 0 0 1 4.078 6.992 A 1.786 1.786 0 0 1 4.041 6.984 A 1.299 1.299 0 0 1 4.008 6.977 Q 4.008 7.002 4.071 7.054 A 0.87 0.87 0 0 0 4.102 7.078 Q 4.195 7.148 4.195 7.188 A 37.048 37.048 0 0 0 4.196 7.466 Q 4.199 7.853 4.211 8.073 A 9.883 9.883 0 0 0 4.211 8.074 A 1.595 1.595 0 0 0 4.238 8.297 Q 4.261 8.416 4.303 8.516 A 0.915 0.915 0 0 0 4.328 8.57 Q 4.367 8.633 4.414 8.652 Q 4.459 8.671 4.539 8.672 A 0.733 0.733 0 0 0 4.547 8.672 L 4.703 8.672 A 2.717 2.717 0 0 0 4.777 8.68 Q 4.85 8.687 4.903 8.687 A 0.804 0.804 0 0 0 4.906 8.688 A 0.463 0.463 0 0 0 4.953 8.685 Q 5 8.68 5.029 8.665 A 0.095 0.095 0 0 0 5.047 8.652 A 0.12 0.12 0 0 0 5.069 8.624 Q 5.087 8.594 5.099 8.545 A 0.586 0.586 0 0 0 5.105 8.516 A 6.4 6.4 0 0 1 5.122 8.434 Q 5.129 8.398 5.138 8.358 A 12.218 12.218 0 0 1 5.156 8.273 A 7.409 7.409 0 0 0 5.313 8.063 A 1.232 1.232 0 0 0 5.336 7.82 A 2.798 2.798 0 0 0 5.335 7.744 Q 5.332 7.652 5.324 7.523 Q 5.313 7.346 5.313 7.323 A 0.092 0.092 0 0 1 5.313 7.32 A 0.491 0.491 0 0 1 5.32 7.273 Q 5.333 7.216 5.359 7.141 A 4.627 4.627 0 0 0 5.389 7.059 Q 5.431 6.937 5.442 6.877 A 0.196 0.196 0 0 0 5.445 6.844 A 0.199 0.199 0 0 0 5.446 6.828 Q 5.448 6.769 5.422 6.662 A 1.752 1.752 0 0 0 5.41 6.617 Q 5.375 6.489 5.369 6.435 A 0.182 0.182 0 0 1 5.367 6.414 A 2.244 2.244 0 0 0 5.366 6.333 A 2.68 2.68 0 0 0 5.363 6.281 A 2.553 2.553 0 0 1 5.36 6.181 A 2.98 2.98 0 0 1 5.359 6.133 A 2.854 2.854 0 0 1 5.36 6.078 Q 5.361 6.023 5.364 5.987 A 0.511 0.511 0 0 1 5.367 5.961 Q 5.367 5.938 5.405 5.839 A 2.792 2.792 0 0 1 5.406 5.836 A 0.22 0.22 0 0 0 5.421 5.773 A 0.265 0.265 0 0 0 5.422 5.75 A 40.083 40.083 0 0 0 5.42 5.346 A 30.517 30.517 0 0 0 5.414 4.977 Q 5.406 4.625 5.398 4.289 Q 5.398 3.995 5.417 3.876 A 0.611 0.611 0 0 1 5.418 3.867 A 1.322 1.322 0 0 1 5.43 3.806 Q 5.442 3.747 5.458 3.708 A 0.305 0.305 0 0 1 5.465 3.691 A 0.403 0.403 0 0 0 5.5 3.57 A 11.529 11.529 0 0 0 5.549 2.893 A 13.413 13.413 0 0 0 5.559 2.613 Q 5.569 2.159 5.577 2.108 A 0.017 0.017 0 0 1 5.578 2.102 A 1.32 1.32 0 0 0 5.719 2.078 A 0.248 0.248 0 0 0 5.833 2.018 A 0.3 0.3 0 0 0 5.844 2.008 L 6.883 1.133 A 3.873 3.873 0 0 0 7.133 0.875 A 16.64 16.64 0 0 1 7.204 0.794 Q 7.312 0.673 7.359 0.625 Q 7.39 0.602 7.523 0.543 A 5.354 5.354 0 0 1 7.531 0.539 A 2.808 2.808 0 0 0 7.596 0.509 Q 7.686 0.467 7.727 0.438 Q 7.809 0.373 7.905 0.272 A 2.916 2.916 0 0 0 7.969 0.203 L 8.156 0 A 0.208 0.208 0 0 1 8.21 0.008 Q 8.286 0.029 8.398 0.102 A 2.4 2.4 0 0 1 8.464 0.147 Q 8.572 0.225 8.742 0.359 Q 8.758 0.375 8.805 0.43 Q 8.914 0.563 8.922 0.57 A 7.011 7.011 0 0 0 9.104 0.726 Q 9.19 0.797 9.268 0.855 A 3.061 3.061 0 0 0 9.383 0.938 A 3.382 3.382 0 0 0 9.489 1.007 Q 9.65 1.107 9.73 1.125 A 3.568 3.568 0 0 0 9.884 1.156 A 3.124 3.124 0 0 0 9.934 1.164 A 1.482 1.482 0 0 0 10.003 1.174 Q 10.037 1.177 10.067 1.179 A 0.724 0.724 0 0 0 10.102 1.18 A 0.497 0.497 0 0 0 10.263 1.152 A 0.564 0.564 0 0 0 10.273 1.148 Q 10.347 1.122 10.436 1.077 A 2.271 2.271 0 0 0 10.465 1.062 A 5.97 5.97 0 0 0 10.666 0.953 A 6.61 6.61 0 0 0 10.68 0.945 A 1.101 1.101 0 0 1 10.713 0.92 Q 10.76 0.887 10.789 0.875 Q 10.859 0.836 10.93 0.836 A 0.543 0.543 0 0 1 11.052 0.849 Q 11.139 0.869 11.2 0.92 A 0.326 0.326 0 0 1 11.238 0.957 A 0.418 0.418 0 0 1 11.331 1.148 A 0.601 0.601 0 0 1 11.344 1.273 Q 11.344 1.287 11.383 1.368 A 3.486 3.486 0 0 0 11.398 1.398 A 0.573 0.573 0 0 1 11.407 1.416 Q 11.429 1.463 11.422 1.477 A 0.191 0.191 0 0 1 11.405 1.516 Q 11.385 1.552 11.346 1.595 A 0.686 0.686 0 0 1 11.34 1.602 A 10.051 10.051 0 0 1 11.308 1.635 Q 11.264 1.682 11.234 1.711 Q 11.19 1.8 11.166 1.832 A 0.107 0.107 0 0 1 11.156 1.844 A 0.923 0.923 0 0 1 11.095 1.891 Q 10.988 1.967 10.786 2.08 A 7.982 7.982 0 0 1 10.781 2.082 A 17.118 17.118 0 0 0 10.652 2.155 Q 10.471 2.258 10.359 2.328 A 83.593 83.593 0 0 0 10.07 2.695 A 0.692 0.692 0 0 1 10.026 2.719 Q 9.928 2.768 9.697 2.862 A 7.743 7.743 0 0 1 9.695 2.863 A 13.223 13.223 0 0 0 9.567 2.916 Q 9.408 2.983 9.328 3.023 A 1.089 1.089 0 0 0 9.297 3.039 Q 9.095 3.156 8.942 3.415 A 1.744 1.744 0 0 0 8.883 3.523 Q 8.719 3.922 8.656 4.055 A 0.177 0.177 0 0 1 8.555 4.151 A 0.223 0.223 0 0 1 8.551 4.152 A 0.105 0.105 0 0 0 8.483 4.226 Q 8.477 4.25 8.477 4.281 A 0.09 0.09 0 0 0 8.493 4.327 Q 8.545 4.412 8.773 4.567 A 3.849 3.849 0 0 0 8.789 4.578 A 1.579 1.579 0 0 1 9.034 4.778 A 1.357 1.357 0 0 1 9.141 4.898 Q 9.154 4.918 9.23 5.007 A 11.311 11.311 0 0 0 9.258 5.039 A 1.314 1.314 0 0 1 9.302 5.095 Q 9.346 5.154 9.367 5.199 A 0.24 0.24 0 0 1 9.381 5.24 Q 9.4 5.309 9.406 5.44 A 2.386 2.386 0 0 1 9.406 5.453 Q 9.412 5.601 9.428 5.686 A 0.521 0.521 0 0 0 9.437 5.727 A 0.276 0.276 0 0 0 9.455 5.772 Q 9.49 5.844 9.582 5.975 A 4.608 4.608 0 0 0 9.641 6.055 A 1.555 1.555 0 0 1 9.765 6.249 Q 9.839 6.389 9.867 6.523 A 0.195 0.195 0 0 1 9.87 6.556 Q 9.87 6.589 9.859 6.625 A 1.87 1.87 0 0 0 9.847 6.67 Q 9.824 6.754 9.827 6.783 A 0.041 0.041 0 0 0 9.828 6.789 A 0.102 0.102 0 0 0 9.84 6.822 Q 9.856 6.85 9.889 6.879 A 0.432 0.432 0 0 0 9.902 6.891 Q 9.969 6.945 9.992 7.063 A 2.527 2.527 0 0 1 10.004 7.129 Q 10.017 7.205 10.033 7.313 A 12.018 12.018 0 0 1 10.047 7.418 A 17.211 17.211 0 0 0 10.06 7.515 Q 10.082 7.673 10.094 7.734 Q 10.107 7.798 10.114 7.963 A 6.629 6.629 0 0 1 10.117 8.039 A 3.973 3.973 0 0 0 10.122 8.141 Q 10.131 8.286 10.148 8.352 Q 10.178 8.521 10.244 8.59 A 0.156 0.156 0 0 0 10.293 8.625 Q 10.395 8.67 10.668 8.672 A 3.46 3.46 0 0 0 10.687 8.672 Q 10.844 8.75 10.945 8.789 A 22.59 22.59 0 0 0 11.102 8.855 Q 11.294 8.936 11.435 8.991 A 6.854 6.854 0 0 0 11.48 9.008 A 11.444 11.444 0 0 0 11.732 9.099 A 9.652 9.652 0 0 0 11.875 9.148 Q 11.964 9.189 12.007 9.242 A 0.17 0.17 0 0 1 12.047 9.352 A 0.09 0.09 0 0 0 12.048 9.361 Q 12.051 9.385 12.064 9.457 A 9.165 9.165 0 0 0 12.07 9.492 Q 12.087 9.582 12.092 9.652 A 0.759 0.759 0 0 1 12.094 9.703 A 0.476 0.476 0 0 1 12.087 9.785 A 0.35 0.35 0 0 1 12.063 9.867 Q 12.047 9.914 11.891 10.043 Q 11.748 10.16 11.716 10.229 A 0.122 0.122 0 0 0 11.711 10.242 Q 11.697 10.277 11.708 10.339 A 0.45 0.45 0 0 0 11.711 10.355 A 2.829 2.829 0 0 1 11.716 10.381 Q 11.726 10.431 11.727 10.444 A 0.221 0.221 0 0 1 11.726 10.466 Q 11.723 10.496 11.711 10.508 A 0.687 0.687 0 0 1 11.647 10.599 Q 11.612 10.641 11.568 10.683 A 1.173 1.173 0 0 1 11.555 10.695 Q 11.521 10.729 11.311 10.899 A 36.325 36.325 0 0 1 11.234 10.961 A 0.632 0.632 0 0 1 11.064 11.054 Q 10.989 11.082 10.9 11.096 A 1.132 1.132 0 0 1 10.867 11.102 A 3.41 3.41 0 0 1 10.429 11.133 A 3.734 3.734 0 0 1 10.398 11.133 Q 10.338 11.133 10.213 11.14 A 9.532 9.532 0 0 0 10.203 11.141 A 7.849 7.849 0 0 1 10.141 11.144 Q 10.059 11.148 10.013 11.148 A 1.075 1.075 0 0 1 10.008 11.148 A 0.702 0.702 0 0 1 9.777 11.109 Q 9.664 11.07 9.539 10.977 L 9.164 10.695 Q 9.109 10.664 8.977 10.66 A 0.616 0.616 0 0 1 8.912 10.655 Q 8.829 10.644 8.789 10.609 A 1.539 1.539 0 0 1 8.636 10.441 A 2.026 2.026 0 0 1 8.523 10.281 Q 8.375 10.047 8.234 9.656 Q 8.222 9.631 8.219 9.579 A 0.541 0.541 0 0 1 8.219 9.555 Q 8.219 9.513 8.228 9.437 A 3.143 3.143 0 0 1 8.234 9.383 A 1.233 1.233 0 0 0 8.238 9.355 Q 8.248 9.265 8.235 9.236 A 0.04 0.04 0 0 0 8.234 9.234 Q 8.117 8.93 8.039 8.828 A 0.483 0.483 0 0 0 7.962 8.746 A 0.3 0.3 0 0 0 7.766 8.672 A 0.041 0.041 0 0 0 7.746 8.679 Q 7.703 8.705 7.609 8.823 A 3.021 3.021 0 0 0 7.586 8.852 Q 7.495 8.965 7.368 9.093 A 4.137 4.137 0 0 1 7.359 9.102 A 0.078 0.078 0 0 1 7.345 9.112 Q 7.318 9.129 7.253 9.152 A 1.963 1.963 0 0 1 7.207 9.168 A 2.975 2.975 0 0 0 7.147 9.188 Q 7.094 9.208 7.059 9.223 A 0.46 0.46 0 0 0 7.028 9.238 A 0.221 0.221 0 0 0 6.995 9.26 Q 6.965 9.284 6.928 9.326 A 0.99 0.99 0 0 0 6.906 9.352 Q 6.836 9.438 6.797 9.469 A 0.19 0.19 0 0 1 6.77 9.486 Q 6.729 9.509 6.656 9.531 Q 6.555 9.563 6.508 9.602 Z M 8.422 3.203 A 0.302 0.302 0 0 0 8.424 3.166 Q 8.424 3.057 8.348 2.934 A 0.951 0.951 0 0 0 8.254 2.809 Q 8.203 2.751 8.139 2.693 A 1.845 1.845 0 0 0 8.078 2.641 A 13.572 13.572 0 0 1 7.851 2.567 A 12.308 12.308 0 0 1 7.836 2.562 A 11.331 11.331 0 0 0 7.066 2.102 Q 6.68 1.891 6.586 1.891 A 0.211 0.211 0 0 0 6.45 1.941 A 0.319 0.319 0 0 0 6.406 1.984 A 4.538 4.538 0 0 1 6.365 2.05 Q 6.32 2.121 6.286 2.168 A 1.061 1.061 0 0 1 6.266 2.195 A 0.137 0.137 0 0 1 6.247 2.219 Q 6.226 2.241 6.189 2.265 A 0.668 0.668 0 0 1 6.164 2.281 Q 6.001 2.379 5.963 2.417 A 0.054 0.054 0 0 0 5.953 2.43 Q 5.906 2.516 5.887 2.598 A 0.648 0.648 0 0 0 5.874 2.67 Q 5.87 2.706 5.868 2.746 A 1.27 1.27 0 0 0 5.867 2.797 A 0.843 0.843 0 0 0 5.868 2.824 Q 5.869 2.867 5.874 2.938 A 5.719 5.719 0 0 0 5.875 2.945 A 4.678 4.678 0 0 1 5.878 2.993 Q 5.883 3.055 5.883 3.09 A 0.606 0.606 0 0 1 5.883 3.094 Q 5.883 3.269 5.951 3.9 A 45.672 45.672 0 0 0 5.961 3.988 Q 6.025 4.566 6.057 4.818 A 7.454 7.454 0 0 0 6.07 4.914 A 0.019 0.019 0 0 1 6.075 4.913 Q 6.104 4.908 6.258 4.921 A 6.923 6.923 0 0 1 6.266 4.922 Q 6.403 4.934 6.49 4.937 A 1.525 1.525 0 0 0 6.539 4.938 A 2.449 2.449 0 0 0 6.601 4.937 Q 6.663 4.935 6.705 4.93 A 0.453 0.453 0 0 0 6.734 4.926 Q 6.797 4.914 6.871 4.879 Q 6.94 4.846 7.079 4.696 A 3.201 3.201 0 0 0 7.102 4.672 A 4.15 4.15 0 0 1 7.17 4.598 Q 7.274 4.489 7.328 4.453 A 6.728 6.728 0 0 0 7.492 4.33 A 5.378 5.378 0 0 0 7.641 4.211 A 7.307 7.307 0 0 0 7.725 4.14 Q 7.844 4.039 7.914 3.969 A 7.552 7.552 0 0 0 8.015 3.909 Q 8.16 3.821 8.219 3.773 A 0.297 0.297 0 0 0 8.284 3.691 Q 8.362 3.557 8.412 3.267 A 3.501 3.501 0 0 0 8.422 3.203 Z M 6.734 5.477 L 6.07 5.477 Q 6.056 5.498 6.045 5.564 A 0.888 0.888 0 0 0 6.043 5.574 Q 6.031 5.648 6.031 5.695 A 20.782 20.782 0 0 0 5.963 5.779 A 17.792 17.792 0 0 0 5.898 5.859 A 2.24 2.24 0 0 0 5.881 6.033 A 3.04 3.04 0 0 0 5.875 6.227 L 5.875 6.445 A 2.793 2.793 0 0 0 5.881 6.628 A 2.512 2.512 0 0 0 5.883 6.656 L 5.883 6.781 A 1.433 1.433 0 0 0 5.866 6.883 A 1.726 1.726 0 0 0 5.859 6.949 A 1.14 1.14 0 0 1 5.844 7.065 A 0.962 0.962 0 0 1 5.832 7.117 Q 5.813 7.195 5.789 7.25 A 1.617 1.617 0 0 1 5.808 7.339 Q 5.828 7.442 5.846 7.591 A 8.21 8.21 0 0 1 5.863 7.738 Q 5.898 8.07 5.898 8.484 A 0.234 0.234 0 0 1 5.95 8.496 Q 6 8.513 6.064 8.553 A 1.069 1.069 0 0 1 6.102 8.578 Q 6.227 8.664 6.305 8.664 A 2.174 2.174 0 0 0 7.164 8.484 A 2.343 2.343 0 0 0 7.345 8.4 Q 7.518 8.308 7.613 8.211 A 0.553 0.553 0 0 0 7.648 8.172 Q 7.684 8.123 7.624 8.036 A 0.448 0.448 0 0 0 7.609 8.016 A 0.071 0.071 0 0 0 7.604 8.007 Q 7.594 7.993 7.572 7.971 A 0.682 0.682 0 0 0 7.57 7.969 A 24.56 24.56 0 0 0 7.568 7.592 Q 7.56 7.069 7.527 6.809 A 3.575 3.575 0 0 0 7.407 6.227 A 3.272 3.272 0 0 0 7.383 6.148 A 0.16 0.16 0 0 1 7.375 6.123 Q 7.369 6.095 7.368 6.053 A 0.811 0.811 0 0 1 7.367 6.023 Q 7.367 5.859 7.328 5.805 A 0.305 0.305 0 0 0 7.274 5.744 Q 7.214 5.693 7.113 5.645 A 1.272 1.272 0 0 0 7.078 5.629 A 41.306 41.306 0 0 1 6.898 5.55 A 31.678 31.678 0 0 1 6.734 5.477 Z" vector-effect="non-scaling-stroke"/></g></svg>